# xmcd
#
# Track frame offsets:
#	150
#	17095
#	32261
#	43781
#	79423
#	91239
#	107313
#	123519
#	134417
#	154002
#	168107
#	177531
#	188232
#	201903
#	218459
#	236722
#	260973
#	281349
#
# Disc length: 3882 seconds
#
# Revision: 0
# Processed by: cddbd v1.5.2PL0 Copyright (c) Steve Scherf et al.
# Submitted via: EasyCDDAExtractor 16.0.6.1
#
DISCID=f40f2812
DTITLE=Συλλογικός δίσκος - Τα μελοποιημένα 08
DYEAR=2010
DGENRE=Έντεχνη
TTITLE0=Μητσιάς Μανώλης - Δρόμοι παλιοί [Μ. Θεοδωράκης-Μαν. Αναγνωστάκης]
TTITLE1=Αρβανιτάκη Ελευθερία - Ερωτικό [Νίκος Ξυδάκης-Ναπολ. Λαπαθιώτης]
TTITLE2=Ανδρεάτος Γεράσιμος-Θαλασσινός Παντελής - Καράβια στη στεριά [Μίνως Μά
TTITLE2=τσας-Μιχάλης Γκανάς]
TTITLE3=Λεονάρδου Σωτηρία-Σουλτάτου Μαρία-θίασος - Καίγομαι, καίγομαι [Σταύρος
TTITLE3=Ξαρχάκος-Νίκος Γκάτσος]
TTITLE4=Ψαριανός Δημήτρης - Όχι, εγώ δε σ' αγαπώ [Χρ. Γκάρτζος-P. Neruda, ελλ.
TTITLE4=Λ.Παπαδόπουλος]
TTITLE5=Νέγκα Γιώτα - Έχω άνθρωπο [Κώστας Λειβαδάς-Θοδωρής Γκόνης]
TTITLE6=Θηβαίος Χρήστος - Κλωστέςς τα μαλλιά σου [Βασ. Δημητρίου-Μάνος Ελευθερ
TTITLE6=ίου]
TTITLE7=Κουμιώτη Ρένα - Μέθυσα και τρέχω [Γ. Κοντογιώργος-Άκος Δασκαλόπουλος]
TTITLE8=Ζωγράφος Γιώργος - Άσμα ασμάτων [Μ. Θεοδωράκης-Ιάκ. Καμπανέλλης]
TTITLE9=Αρλέτα - Black and white [Λάκης Παπαδόπουλος-Νίκος Καββαδίας]
TTITLE10=Μπέλλου Σωτηρία - Αγάπη απαγορευμένη [Δημ. Λάγιος-Μιχάλης Μπουρμπούλη
TTITLE10=ς]
TTITLE11=Πουλόπουλος Γιάννης - Πήρα σύννεφο δυό τόπια [Μίμης Πλέσσας-Λ. Παπαδό
TTITLE11=πουλος]
TTITLE12=Γιαννάτου Σαβίνα - Το φεγγαράκι απόψε [Λένα Πλάτωνος-Κώστας Καρυωτάκη
TTITLE12=ς]
TTITLE13=Ξυδούς Μάνος - Το κορίτσι της βροχής [Μάνος Ξυδούς-Χαράλ. Χατζηνάκης]
TTITLE14=Μάνου Αφροδίτη - Ο χαμαιλέων [Μιχ. Τρανουδάκης-Οδυσσέας Ελύτης]
TTITLE15=Βενετσάνου Νένα - Αγιάναπα Β' [Ηλίας Ανδριόπουλος-Γιώργος Σεφέρης]
TTITLE16=Φλωράκης Γιώργος - Σαραμπάντα [Δημ. Παπαδημητρίου-Χάρης Μεγαλυνός]
TTITLE17=Βιτάλη Ελένη - Ο αγωγιάτης [Γιώργος Κοτσώνης-Γιάννης Ρίτσος]
EXTD=
EXTT0=
EXTT1=
EXTT2=
EXTT3=
EXTT4=
EXTT5=
EXTT6=
EXTT7=
EXTT8=
EXTT9=
EXTT10=
EXTT11=
EXTT12=
EXTT13=
EXTT14=
EXTT15=
EXTT16=
EXTT17=
PLAYORDER=
